<?xml version="1.0" encoding="utf-8"?>
<!-- Generator: Adobe Illustrator 23.0.3, SVG Export Plug-In . SVG Version: 6.00 Build 0)  -->
<svg version="1.1" id="Layer_1" xmlns="http://www.w3.org/2000/svg" xmlns:xlink="http://www.w3.org/1999/xlink" x="0px" y="0px"
	 viewBox="0 0 1920 1080" style="enable-background:new 0 0 1920 1080;" xml:space="preserve">
<style type="text/css">
	.st0{clip-path:url(#SVGID_2_);fill:none;stroke:#FFDE00;stroke-width:1.18;stroke-miterlimit:10;}
	.st1{clip-path:url(#SVGID_4_);fill:#C7C7C7;}
	.st2{clip-path:url(#SVGID_6_);fill:#C7C7C7;}
	.st3{clip-path:url(#SVGID_8_);fill:#C7C7C7;}
	.st4{clip-path:url(#SVGID_10_);fill:#C7C7C7;}
	.st5{clip-path:url(#SVGID_12_);fill:#C7C7C7;}
	.st6{clip-path:url(#SVGID_14_);fill:#C7C7C7;}
	.st7{clip-path:url(#SVGID_16_);fill:#1C1C1C;}
	.st8{clip-path:url(#SVGID_18_);fill:#1C1C1C;}
	.st9{clip-path:url(#SVGID_20_);fill:#1C1C1C;}
	.st10{fill:#1C1C1C;}
	.st11{clip-path:url(#SVGID_22_);fill:#1C1C1C;}
	.st12{clip-path:url(#SVGID_24_);fill:#1C1C1C;}
	.st13{clip-path:url(#SVGID_26_);fill:#1C1C1C;}
	.st14{clip-path:url(#SVGID_28_);fill:#1C1C1C;}
	.st15{clip-path:url(#SVGID_30_);fill:#1C1C1C;}
	.st16{clip-path:url(#SVGID_32_);fill:#1C1C1C;}
	.st17{clip-path:url(#SVGID_34_);fill:#1C1C1C;}
	.st18{clip-path:url(#SVGID_36_);fill:#1C1C1C;}
	.st19{clip-path:url(#SVGID_38_);fill:#C7C7C7;}
	.st20{clip-path:url(#SVGID_40_);fill:none;stroke:#C7C7C7;stroke-width:1.18;stroke-miterlimit:10;}
	.st21{clip-path:url(#SVGID_42_);fill:#C7C7C7;}
	.st22{clip-path:url(#SVGID_44_);fill:none;stroke:#C7C7C7;stroke-width:1.18;stroke-miterlimit:10;}
	.st23{clip-path:url(#SVGID_46_);fill:#C7C7C7;}
	.st24{clip-path:url(#SVGID_48_);fill:none;stroke:#C7C7C7;stroke-width:1.18;stroke-miterlimit:10;}
	.st25{clip-path:url(#SVGID_50_);fill:#C7C7C7;}
	.st26{clip-path:url(#SVGID_52_);fill:none;stroke:#C7C7C7;stroke-width:1.18;stroke-miterlimit:10;}
	.st27{clip-path:url(#SVGID_54_);fill:#C7C7C7;}
	.st28{clip-path:url(#SVGID_56_);fill:none;stroke:#C7C7C7;stroke-width:1.18;stroke-miterlimit:10;}
	.st29{clip-path:url(#SVGID_58_);fill:#C7C7C7;}
	.st30{clip-path:url(#SVGID_60_);fill:none;stroke:#C7C7C7;stroke-width:1.18;stroke-miterlimit:10;}
	.st31{clip-path:url(#SVGID_62_);fill:#C7C7C7;}
	.st32{clip-path:url(#SVGID_64_);fill:none;stroke:#C7C7C7;stroke-width:1.18;stroke-miterlimit:10;}
	.st33{clip-path:url(#SVGID_66_);fill:#C7C7C7;}
	.st34{clip-path:url(#SVGID_68_);fill:none;stroke:#C7C7C7;stroke-width:1.18;stroke-miterlimit:10;}
	.st35{clip-path:url(#SVGID_70_);fill:#C7C7C7;}
	.st36{clip-path:url(#SVGID_72_);fill:none;stroke:#C7C7C7;stroke-width:1.18;stroke-miterlimit:10;}
	.st37{clip-path:url(#SVGID_74_);fill:#C7C7C7;}
	.st38{clip-path:url(#SVGID_76_);fill:none;stroke:#C7C7C7;stroke-width:1.18;stroke-miterlimit:10;}
	.st39{clip-path:url(#SVGID_78_);fill:#C7C7C7;}
	.st40{clip-path:url(#SVGID_80_);fill:none;stroke:#C7C7C7;stroke-width:1.18;stroke-miterlimit:10;}
	.st41{clip-path:url(#SVGID_82_);fill:#C7C7C7;}
	.st42{clip-path:url(#SVGID_84_);fill:none;stroke:#C7C7C7;stroke-width:1.18;stroke-miterlimit:10;}
	.st43{clip-path:url(#SVGID_86_);fill:#C7C7C7;}
	.st44{clip-path:url(#SVGID_88_);fill:none;stroke:#C7C7C7;stroke-width:1.18;stroke-miterlimit:10;}
	.st45{clip-path:url(#SVGID_90_);fill:#C7C7C7;}
	.st46{clip-path:url(#SVGID_92_);fill:none;stroke:#C7C7C7;stroke-width:1.18;stroke-miterlimit:10;}
	.st47{clip-path:url(#SVGID_94_);fill:#C7C7C7;}
	.st48{clip-path:url(#SVGID_96_);fill:none;stroke:#C7C7C7;stroke-miterlimit:10;}
	.st49{clip-path:url(#SVGID_98_);fill:#C7C7C7;}
	.st50{clip-path:url(#SVGID_100_);fill:none;stroke:#C7C7C7;stroke-miterlimit:10;}
	.st51{clip-path:url(#SVGID_102_);fill:#C7C7C7;}
	.st52{clip-path:url(#SVGID_104_);fill:none;stroke:#C7C7C7;stroke-miterlimit:10;}
</style>
<g>
	<g>
		<defs>
			<rect id="SVGID_1_" width="1920" height="1080"/>
		</defs>
		<clipPath id="SVGID_2_">
			<use xlink:href="#SVGID_1_"  style="overflow:visible;"/>
		</clipPath>
		<path class="st0" d="M502.51,594.39c-8.72-7.47-9.74-20.59-2.27-29.3c7.47-8.72,20.59-9.74,29.31-2.26
			c8.71,7.47,9.73,20.58,2.26,29.3C524.35,600.84,511.22,601.85,502.51,594.39z"/>
	</g>
	<g>
		<defs>
			<rect id="SVGID_3_" width="1920" height="1080"/>
		</defs>
		<clipPath id="SVGID_4_">
			<use xlink:href="#SVGID_3_"  style="overflow:visible;"/>
		</clipPath>
		<path class="st1" d="M132.52,390.92c39.65,1.16,79.31,2.31,118.96,3.47c76.97,2.24,153.94,4.49,230.91,6.73
			c51.3,1.5,102.61,2.99,153.91,4.49c1.47,0.04,2.94,0.09,4.42,0.13c1.69,0.05-2.72-0.81-0.29,0.17c5.96,2.42,11.92,4.83,17.88,7.25
			c27.97,11.35,55.95,22.7,83.92,34.04c65.42,26.53,130.83,53.07,196.25,79.6c7.65,3.1,15.29,6.2,22.93,9.3
			c3,1.22,5.98-0.88,7.66-3.12c26.17-34.93,52.34-69.87,78.52-104.8c45.65-60.93,91.3-121.86,136.94-182.79
			c17.41-23.24,34.82-46.48,52.23-69.72c-4.21-1.14-8.43-2.28-12.64-3.42c-4.87,45.76-9.74,91.53-14.62,137.29
			c-7.81,73.34-15.62,146.69-23.43,220.03c-1.81,17.04-3.63,34.07-5.44,51.11c-0.59,5.55,5.52,8.79,9.24,11.83
			c11.14,9.1,22.29,18.2,33.43,27.31c34.91,28.52,69.82,57.04,104.72,85.56c1-3.78,1.99-7.56,2.99-11.34
			c-26.93,11.25-53.86,22.5-80.79,33.76c-63.01,26.33-126.02,52.65-189.03,78.98c-72.41,30.26-144.82,60.51-217.23,90.77
			c-55.14,23.04-110.28,46.08-165.42,69.12c-14.04,5.87-28.08,11.73-42.11,17.6c2.78,1.58,5.57,3.16,8.35,4.74
			c-12.71-42.85-25.41-85.7-38.11-128.54c-21.37-72.07-42.74-144.14-64.11-216.21c-6.09-20.52-12.17-41.05-18.26-61.57
			c-1.01-3.41-1.71-8.34-5.18-10.09c-4.17-2.11-8.34-4.23-12.51-6.34c-56.08-28.44-112.16-56.87-168.24-85.31
			c-60.02-30.44-120.04-60.87-180.06-91.3c-7.46-3.78-14.92-7.57-22.38-11.35c-7.79-3.95-14.66,7.76-6.85,11.72
			c39.86,20.21,79.73,40.43,119.59,60.64c67.05,34,134.1,68,201.16,102c20.92,10.61,41.84,21.21,62.75,31.82
			c-1.04-1.35-2.08-2.7-3.12-4.05c12.71,42.85,25.41,85.69,38.12,128.54c21.37,72.07,42.74,144.14,64.11,216.21
			c6.67,22.48,13.33,44.97,20,67.45c0.95,3.2,4.88,6.19,8.35,4.74c26.93-11.25,53.86-22.5,80.79-33.76
			c63.01-26.33,126.02-52.65,189.03-78.98c72.41-30.26,144.82-60.51,217.24-90.77c55.14-23.04,110.28-46.08,165.42-69.11
			c14.04-5.87,28.08-11.73,42.11-17.6c4.15-1.73,7.42-7.72,2.99-11.34c-45.6-37.25-91.19-74.5-136.79-111.75
			c-2.91-2.38-5.82-4.75-8.72-7.13c0.66,1.6,1.32,3.2,1.99,4.8c4.87-45.76,9.74-91.53,14.62-137.29
			c7.81-73.35,15.62-146.69,23.43-220.03c1.85-17.38,3.7-34.76,5.55-52.13c0.8-7.51-9.11-8.14-12.64-3.43
			c-26.17,34.93-52.34,69.87-78.52,104.8c-45.65,60.93-91.3,121.86-136.94,182.79c-17.41,23.24-34.82,46.48-52.23,69.72
			c2.55-1.04,5.11-2.08,7.66-3.12c-47.2-19.15-94.4-38.29-141.6-57.43c-58.15-23.59-116.3-47.17-174.45-70.76
			c-2.77-1.13-5.41-2.58-8.45-2.66c-4.55-0.13-9.1-0.27-13.65-0.4c-23.14-0.67-46.28-1.35-69.42-2.02
			c-74.9-2.18-149.8-4.37-224.7-6.55c-60.57-1.77-121.15-3.53-181.72-5.3c-6.17-0.18-12.34-0.36-18.51-0.54
			C123.77,377.09,123.79,390.66,132.52,390.92"/>
	</g>
	<g>
		<defs>
			<rect id="SVGID_5_" width="1920" height="1080"/>
		</defs>
		<clipPath id="SVGID_6_">
			<use xlink:href="#SVGID_5_"  style="overflow:visible;"/>
		</clipPath>
		<path class="st2" d="M869.14,332.24c-10.15,28.24-20.31,56.48-30.46,84.72c-23.32,64.84-46.63,129.68-69.95,194.52
			c-25.76,71.62-51.51,143.24-77.27,214.87c-17.47,48.59-34.94,97.18-52.42,145.77c-2.3,6.41-4.61,12.81-6.91,19.22
			c-2.97,8.26,10.15,11.78,13.09,3.61c10.15-28.24,20.31-56.48,30.46-84.72c23.32-64.84,46.63-129.68,69.95-194.52
			c25.76-71.62,51.51-143.24,77.27-214.86c17.47-48.59,34.94-97.18,52.42-145.77c2.3-6.41,4.61-12.81,6.91-19.22
			C885.19,327.59,872.07,324.07,869.14,332.24"/>
	</g>
	<g>
		<defs>
			<rect id="SVGID_7_" width="1920" height="1080"/>
		</defs>
		<clipPath id="SVGID_8_">
			<use xlink:href="#SVGID_7_"  style="overflow:visible;"/>
		</clipPath>
		<path class="st3" d="M464.77,184.69c-20.1,28.76-40.19,57.52-60.29,86.28c-42.41,60.7-84.83,121.4-127.24,182.1
			c-37.93,54.27-75.85,108.54-113.77,162.82c-9.55,13.66-19.1,27.33-28.65,40.99c-1.73,2.47-0.96,6.2,1.06,8.22
			c33.81,33.84,67.62,67.67,101.43,101.51c48.19,48.22,96.37,96.45,144.56,144.67c5.49,5.49,10.97,10.98,16.46,16.47
			c3.74,3.74,9.77,1.79,11.34-2.99c15.1-46.07,30.21-92.13,45.31-138.2c20.73-63.22,41.46-126.44,62.18-189.66
			c1.74-5.3,3.48-10.61,5.21-15.91c0.91-2.76,0.01-6.01-0.31-8.81c-2.57-22.13-5.15-44.26-7.72-66.39
			c-8.57-73.75-17.15-147.51-25.72-221.26c-3.74-32.14-7.47-64.27-11.21-96.41c-1-8.59-14.58-8.68-13.57,0
			c5.33,45.82,10.65,91.63,15.98,137.45c8.23,70.81,16.46,141.62,24.7,212.42c1.15,9.89,2.3,19.79,3.45,29.68
			c0.32,2.7,0.63,5.4,0.94,8.1c0.22,1.92-0.37,3.91,0.57,1.03c-4.63,14.11-9.26,28.23-13.88,42.34
			c-22.55,68.79-45.1,137.57-67.66,206.36c-10.45,31.88-20.91,63.76-31.36,95.65c3.78-1,7.56-2,11.34-2.99
			c-33.81-33.84-67.62-67.67-101.43-101.51c-48.19-48.22-96.37-96.45-144.56-144.67c-5.49-5.49-10.97-10.98-16.46-16.47
			c0.35,2.74,0.71,5.48,1.06,8.22c20.1-28.76,40.19-57.52,60.29-86.28c42.42-60.7,84.83-121.4,127.24-182.1
			c37.93-54.27,75.85-108.55,113.77-162.82c9.55-13.66,19.1-27.33,28.65-40.99C481.51,184.35,469.74,177.58,464.77,184.69"/>
	</g>
	<g>
		<defs>
			<rect id="SVGID_9_" width="1920" height="1080"/>
		</defs>
		<clipPath id="SVGID_10_">
			<use xlink:href="#SVGID_9_"  style="overflow:visible;"/>
		</clipPath>
		<path class="st4" d="M635.82,403.81c-34.77,47.41-69.53,94.83-104.3,142.24c-7.12,9.71-14.24,19.42-21.36,29.12
			c-1.75,2.38-0.97,6.29,1.06,8.22c23.68,22.47,47.36,44.94,71.04,67.41c52.21,49.54,104.42,99.08,156.64,148.62
			c52.49,49.81,104.99,99.62,157.48,149.43c24.53,23.27,49.06,46.55,73.59,69.82c0.01,0.01,0.02,0.02,0.03,0.03
			c2.99,2.84,8.66,2.66,10.66-1.37c17.89-36.11,35.77-72.22,53.66-108.33c33.65-67.93,67.29-135.86,100.94-203.78
			c19.39-39.14,38.78-78.28,58.16-117.42c0.06-0.11,0.11-0.23,0.17-0.34c1.25-2.53,1.39-6.24-1.06-8.22
			c-35.62-28.86-71.23-57.71-106.84-86.57c-55.74-45.16-111.48-90.33-167.21-135.49c-11.46-9.28-22.92-18.57-34.38-27.86
			c-4.84-3.92-12.24-0.3-17.57,1.16c-12.21,3.34-24.43,6.68-36.64,10.02l-190.46,52.09c-2.12,0.58-4.24,1.16-6.36,1.74
			c-8.43,2.3-4.85,15.4,3.61,13.08c55.23-15.11,110.46-30.21,165.69-45.32c26.21-7.17,52.43-14.34,78.64-21.51
			c-2.2-0.58-4.4-1.16-6.6-1.74c35.61,28.86,71.23,57.72,106.84,86.57c55.74,45.16,111.48,90.33,167.21,135.49
			c11.49,9.31,22.98,18.62,34.47,27.93c-0.35-2.74-0.71-5.48-1.06-8.22c-17.89,36.11-35.77,72.22-53.66,108.33
			c-33.65,67.93-67.29,135.86-100.94,203.78c-19.39,39.14-38.77,78.28-58.16,117.42c-0.06,0.11-0.11,0.23-0.17,0.34
			c3.55-0.46,7.1-0.91,10.65-1.37c-23.68-22.47-47.36-44.94-71.04-67.41c-52.21-49.54-104.42-99.08-156.64-148.62
			c-52.49-49.81-104.99-99.62-157.48-149.43c-24.53-23.27-49.06-46.55-73.59-69.82c-0.01-0.01-0.02-0.02-0.03-0.03
			c0.35,2.74,0.71,5.48,1.06,8.22c34.77-47.41,69.53-94.83,104.3-142.24c7.12-9.71,14.24-19.42,21.36-29.12
			C652.72,403.59,640.94,396.83,635.82,403.81"/>
	</g>
	<g>
		<defs>
			<rect id="SVGID_11_" width="1920" height="1080"/>
		</defs>
		<clipPath id="SVGID_12_">
			<use xlink:href="#SVGID_11_"  style="overflow:visible;"/>
		</clipPath>
		<path class="st5" d="M956.97,531.97c1.12,40.14,2.23,80.29,3.35,120.43c2.11,75.8,4.22,151.59,6.33,227.38
			c1.24,44.49,2.48,88.99,3.72,133.48c0,0.21,0.01,0.43,0.02,0.64c0.24,8.73,13.81,8.76,13.57,0c-1.12-40.14-2.23-80.29-3.35-120.43
			c-2.11-75.79-4.22-151.59-6.33-227.38c-1.24-44.5-2.48-88.99-3.71-133.48c-0.01-0.22-0.01-0.43-0.02-0.64
			C970.3,523.24,956.73,523.21,956.97,531.97"/>
	</g>
	<g>
		<defs>
			<rect id="SVGID_13_" width="1920" height="1080"/>
		</defs>
		<clipPath id="SVGID_14_">
			<use xlink:href="#SVGID_13_"  style="overflow:visible;"/>
		</clipPath>
		<path class="st6" d="M668,391.38c29.45-49.8,58.91-99.59,88.36-149.39c1.97-3.33,3.94-6.66,5.91-9.99
			c-3.55,0.46-7.1,0.92-10.66,1.37c41.19,35.04,82.38,70.07,123.57,105.11c0.14,0.12,0.28,0.24,0.42,0.35
			c6.62,5.63,16.27-3.92,9.6-9.59c-41.19-35.04-82.38-70.07-123.57-105.11c-0.14-0.12-0.28-0.24-0.41-0.36
			c-3.31-2.81-8.3-2.62-10.66,1.37c-29.46,49.8-58.91,99.59-88.36,149.39c-1.97,3.33-3.94,6.66-5.91,9.99
			C651.81,392.08,663.55,398.91,668,391.38"/>
	</g>
	<g>
		<defs>
			<rect id="SVGID_15_" width="1920" height="1080"/>
		</defs>
		<clipPath id="SVGID_16_">
			<use xlink:href="#SVGID_15_"  style="overflow:visible;"/>
		</clipPath>
		<path class="st7" d="M387.59,356.32h36.69V405c4.99-5.17,9.94-8.86,14.87-11.08c4.93-2.23,10.76-3.34,17.48-3.34
			c9.98,0,17.84,3.04,23.57,9.11c5.74,6.07,8.61,15.38,8.61,27.94v60.85h-36.87v-52.65c0-6.01-1.11-10.26-3.34-12.75
			c-2.22-2.5-5.35-3.74-9.38-3.74c-4.45,0-8.06,1.68-10.82,5.05c-2.77,3.36-4.14,9.4-4.14,18.12v45.97h-36.69V356.32H387.59z"/>
	</g>
	<g>
		<defs>
			<rect id="SVGID_17_" width="1920" height="1080"/>
		</defs>
		<clipPath id="SVGID_18_">
			<use xlink:href="#SVGID_17_"  style="overflow:visible;"/>
		</clipPath>
		<path class="st8" d="M611.6,488.48h-34.25v-15.51c-5.11,6.37-10.26,10.91-15.46,13.61c-5.2,2.71-11.58,4.06-19.16,4.06
			c-10.09,0-18.01-3.02-23.75-9.06c-5.74-6.04-8.6-15.34-8.6-27.9v-60.94h36.87v52.65c0,6.01,1.11,10.27,3.33,12.8
			c2.23,2.52,5.35,3.79,9.38,3.79c4.39,0,7.98-1.68,10.77-5.05c2.8-3.37,4.19-9.4,4.19-18.12v-46.07h36.69v95.74H611.6z"/>
	</g>
	<g>
		<defs>
			<rect id="SVGID_19_" width="1920" height="1080"/>
		</defs>
		<clipPath id="SVGID_20_">
			<use xlink:href="#SVGID_19_"  style="overflow:visible;"/>
		</clipPath>
		<path class="st9" d="M670.82,440.34c0,8.23,1.55,14.2,4.64,17.89c3.1,3.69,7.02,5.54,11.77,5.54c4.39,0,8.07-1.82,11.04-5.46
			c2.97-3.63,4.46-9.75,4.46-18.34c0-7.57-1.46-13.13-4.38-16.67c-2.91-3.55-6.44-5.32-10.59-5.32c-4.99,0-9.06,1.85-12.21,5.54
			C672.4,427.22,670.82,432.83,670.82,440.34 M634.05,356.32h37.05v45.79c3.66-3.85,7.83-6.73,12.48-8.65
			c4.66-1.92,9.81-2.89,15.46-2.89c11.66,0,21.31,4.19,28.94,12.58c7.63,8.38,11.45,20.42,11.45,36.1c0,10.46-1.74,19.67-5.23,27.63
			c-3.48,7.96-8.31,13.91-14.47,17.85c-6.16,3.93-12.99,5.9-20.5,5.9c-6.44,0-12.32-1.38-17.67-4.15
			c-4.03-2.16-8.42-6.21-13.16-12.17v14.15h-34.34L634.05,356.32L634.05,356.32z"/>
	</g>
</g>
<polygon class="st10" points="251.13,356.06 319.1,356.06 319.1,553.93 440.27,553.93 440.27,611.61 251.13,611.61 "/>
<g>
	<g>
		<defs>
			<rect id="SVGID_21_" width="1920" height="1080"/>
		</defs>
		<clipPath id="SVGID_22_">
			<use xlink:href="#SVGID_21_"  style="overflow:visible;"/>
		</clipPath>
		<path class="st11" d="M481.51,582.18c0,16.26,13.17,29.43,29.41,29.43c16.26,0,29.44-13.18,29.44-29.43s-13.18-29.43-29.44-29.43
			C494.68,552.75,481.51,565.93,481.51,582.18"/>
	</g>
	<g>
		<defs>
			<rect id="SVGID_23_" width="1920" height="1080"/>
		</defs>
		<clipPath id="SVGID_24_">
			<use xlink:href="#SVGID_23_"  style="overflow:visible;"/>
		</clipPath>
		<path class="st12" d="M793.03,464.04c0,16.26,13.17,29.43,29.41,29.43c16.26,0,29.44-13.18,29.44-29.43s-13.18-29.43-29.44-29.43
			C806.2,434.61,793.03,447.79,793.03,464.04"/>
	</g>
	<g>
		<defs>
			<rect id="SVGID_25_" width="1920" height="1080"/>
		</defs>
		<clipPath id="SVGID_26_">
			<use xlink:href="#SVGID_25_"  style="overflow:visible;"/>
		</clipPath>
		<path class="st13" d="M593.4,557.05c0.91-0.75,1.37-1.82,1.37-3.21s-0.46-2.47-1.37-3.21c-0.91-0.75-2.26-1.12-4.02-1.12h-4.74
			v8.67h4.74C591.14,558.18,592.48,557.8,593.4,557.05 M594.51,547.01c1.4,0.62,2.48,1.52,3.23,2.68c0.75,1.17,1.12,2.55,1.12,4.15
			c0,1.58-0.37,2.96-1.12,4.13s-1.83,2.07-3.23,2.7c-1.4,0.62-3.05,0.94-4.94,0.94h-4.92v6.3h-4.05v-21.82h8.98
			C591.46,546.08,593.1,546.39,594.51,547.01"/>
	</g>
	<g>
		<defs>
			<rect id="SVGID_27_" width="1920" height="1080"/>
		</defs>
		<clipPath id="SVGID_28_">
			<use xlink:href="#SVGID_27_"  style="overflow:visible;"/>
		</clipPath>
		<path class="st14" d="M621.09,563.68c1.16-0.66,2.08-1.57,2.74-2.74c0.66-1.18,0.99-2.49,0.99-3.94c0-1.46-0.33-2.77-0.99-3.95
			c-0.67-1.17-1.58-2.09-2.74-2.74c-1.17-0.65-2.48-0.98-3.93-0.98c-1.46,0-2.77,0.33-3.93,0.98c-1.16,0.66-2.08,1.57-2.74,2.74
			c-0.67,1.17-1,2.49-1,3.95c0,1.45,0.33,2.77,1,3.94c0.67,1.18,1.58,2.09,2.74,2.74c1.16,0.65,2.47,0.98,3.93,0.98
			C618.61,564.66,619.92,564.33,621.09,563.68 M611.14,566.77c-1.79-0.97-3.19-2.31-4.21-4.02c-1.02-1.72-1.53-3.63-1.53-5.75
			s0.51-4.04,1.53-5.76c1.02-1.72,2.42-3.05,4.21-4.02c1.79-0.97,3.79-1.45,6.02-1.45c2.22,0,4.23,0.48,6.01,1.45
			c1.79,0.97,3.19,2.3,4.21,4.01s1.53,3.63,1.53,5.77s-0.51,4.06-1.53,5.77c-1.02,1.7-2.42,3.04-4.21,4.01
			c-1.78,0.97-3.79,1.45-6.01,1.45C614.93,568.21,612.93,567.73,611.14,566.77"/>
	</g>
</g>
<polygon class="st10" points="668.85,546.08 661.61,567.9 657.31,567.9 651.92,551.75 646.43,567.9 642.1,567.9 634.86,546.08 
	639.07,546.08 644.5,562.67 650.14,546.08 653.88,546.08 659.4,562.76 664.98,546.08 "/>
<polygon class="st10" points="692.73,564.5 692.73,567.9 676.36,567.9 676.36,546.08 692.29,546.08 692.29,549.48 680.42,549.48 
	680.42,555.15 690.95,555.15 690.95,558.49 680.42,558.49 680.42,564.5 "/>
<g>
	<g>
		<defs>
			<rect id="SVGID_29_" width="1920" height="1080"/>
		</defs>
		<clipPath id="SVGID_30_">
			<use xlink:href="#SVGID_29_"  style="overflow:visible;"/>
		</clipPath>
		<path class="st15" d="M713.81,550.63c-0.91-0.75-2.25-1.12-4.02-1.12h-4.74v8.7h4.74c1.77,0,3.11-0.38,4.02-1.14
			c0.92-0.76,1.37-1.83,1.37-3.23C715.18,552.45,714.72,551.38,713.81,550.63 M715.27,567.9l-4.46-6.39
			c-0.19,0.02-0.47,0.03-0.85,0.03h-4.92v6.36h-4.06v-21.82h8.98c1.89,0,3.54,0.31,4.94,0.93c1.41,0.62,2.48,1.52,3.23,2.68
			c0.75,1.17,1.12,2.55,1.12,4.15c0,1.64-0.4,3.05-1.2,4.24c-0.8,1.19-1.95,2.07-3.44,2.65l5.02,7.17H715.27z"/>
	</g>
</g>
<polygon class="st10" points="743.89,564.5 743.89,567.9 727.52,567.9 727.52,546.08 743.46,546.08 743.46,549.48 731.58,549.48 
	731.58,555.15 742.12,555.15 742.12,558.49 731.58,558.49 731.58,564.5 "/>
<g>
	<g>
		<defs>
			<rect id="SVGID_31_" width="1920" height="1080"/>
		</defs>
		<clipPath id="SVGID_32_">
			<use xlink:href="#SVGID_31_"  style="overflow:visible;"/>
		</clipPath>
		<path class="st16" d="M761.51,564.47c1.6,0,3.01-0.31,4.22-0.92c1.22-0.61,2.15-1.49,2.81-2.62c0.65-1.13,0.98-2.45,0.98-3.94
			c0-1.5-0.33-2.81-0.98-3.95c-0.65-1.13-1.59-2.01-2.81-2.62c-1.21-0.61-2.62-0.92-4.22-0.92h-5.3v14.96L761.51,564.47
			L761.51,564.47z M752.15,546.08h9.54c2.33,0,4.4,0.45,6.2,1.35c1.81,0.91,3.21,2.18,4.21,3.83s1.5,3.56,1.5,5.72
			s-0.5,4.07-1.5,5.72c-1,1.65-2.4,2.93-4.21,3.84c-1.81,0.9-3.88,1.35-6.2,1.35h-9.54V546.08z"/>
	</g>
	<g>
		<defs>
			<rect id="SVGID_33_" width="1920" height="1080"/>
		</defs>
		<clipPath id="SVGID_34_">
			<use xlink:href="#SVGID_33_"  style="overflow:visible;"/>
		</clipPath>
		<path class="st17" d="M810.42,561.57c0-2.1-1.57-3.15-4.71-3.15h-6.55v6.3h6.55C808.85,564.72,810.42,563.67,810.42,561.57
			 M799.17,549.26v6.02h5.74c1.41,0,2.5-0.25,3.26-0.76c0.76-0.52,1.14-1.26,1.14-2.23c0-1-0.38-1.75-1.14-2.26
			s-1.84-0.77-3.26-0.77H799.17z M813.44,558.53c0.71,0.92,1.06,2.07,1.06,3.44c0,1.89-0.73,3.35-2.18,4.38
			c-1.45,1.03-3.57,1.55-6.36,1.55h-10.85v-21.82h10.22c2.58,0,4.56,0.5,5.96,1.51c1.39,1.01,2.09,2.4,2.09,4.16
			c0,1.08-0.25,2.04-0.75,2.87s-1.18,1.48-2.06,1.93C811.78,556.95,812.74,557.61,813.44,558.53"/>
	</g>
</g>
<polygon class="st10" points="832,560.2 832,567.9 827.94,567.9 827.94,560.27 819.37,546.08 823.71,546.08 830.1,556.71 
	836.55,546.08 840.54,546.08 "/>
<polygon class="st10" points="580.45,587.67 584.51,587.67 584.51,606.06 595.92,606.06 595.92,609.49 580.45,609.49 "/>
<rect x="602.87" y="587.67" class="st10" width="4.05" height="21.82"/>
<g>
	<g>
		<defs>
			<rect id="SVGID_35_" width="1920" height="1080"/>
		</defs>
		<clipPath id="SVGID_36_">
			<use xlink:href="#SVGID_35_"  style="overflow:visible;"/>
		</clipPath>
		<path class="st18" d="M629.37,592.22c-0.92-0.75-2.26-1.12-4.02-1.12h-4.74v8.7h4.74c1.76,0,3.11-0.38,4.02-1.14
			s1.37-1.83,1.37-3.23C630.74,594.04,630.28,592.97,629.37,592.22 M630.83,609.49l-4.46-6.39c-0.19,0.02-0.47,0.03-0.84,0.03h-4.92
			v6.36h-4.05v-21.82h8.98c1.89,0,3.54,0.31,4.94,0.93c1.4,0.62,2.48,1.52,3.23,2.68s1.12,2.55,1.12,4.15c0,1.64-0.4,3.06-1.2,4.24
			c-0.8,1.19-1.95,2.07-3.44,2.65l5.02,7.17H630.83z"/>
	</g>
</g>
<polygon class="st10" points="647.51,591.1 640.28,591.1 640.28,587.67 658.8,587.67 658.8,591.1 651.57,591.1 651.57,609.49 
	647.51,609.49 "/>
<polygon class="st10" points="681.96,606.09 681.96,609.49 665.6,609.49 665.6,587.67 681.53,587.67 681.53,591.07 669.65,591.07 
	669.65,596.74 680.19,596.74 680.19,600.08 669.65,600.08 669.65,606.09 "/>
<polygon class="st10" points="709.62,587.67 709.62,609.49 706.28,609.49 694.25,594.72 694.25,609.49 690.23,609.49 690.23,587.67 
	693.56,587.67 705.6,602.45 705.6,587.67 "/>
<g>
	<g>
		<defs>
			<rect id="SVGID_37_" width="1920" height="1080"/>
		</defs>
		<clipPath id="SVGID_38_">
			<use xlink:href="#SVGID_37_"  style="overflow:visible;"/>
		</clipPath>
		<path class="st19" d="M457.11,203.9c-8.72-7.47-9.74-20.59-2.27-29.3c7.47-8.72,20.59-9.73,29.31-2.26
			c8.71,7.47,9.73,20.58,2.26,29.31C478.94,210.36,465.82,211.36,457.11,203.9"/>
	</g>
	<g>
		<defs>
			<rect id="SVGID_39_" width="1920" height="1080"/>
		</defs>
		<clipPath id="SVGID_40_">
			<use xlink:href="#SVGID_39_"  style="overflow:visible;"/>
		</clipPath>
		<path class="st20" d="M457.11,203.9c-8.72-7.47-9.74-20.59-2.27-29.3c7.47-8.72,20.59-9.73,29.31-2.26
			c8.71,7.47,9.73,20.58,2.26,29.31C478.94,210.36,465.82,211.36,457.11,203.9z"/>
	</g>
	<g>
		<defs>
			<rect id="SVGID_41_" width="1920" height="1080"/>
		</defs>
		<clipPath id="SVGID_42_">
			<use xlink:href="#SVGID_41_"  style="overflow:visible;"/>
		</clipPath>
		<path class="st21" d="M130.05,402.24c-8.72-7.47-9.74-20.59-2.27-29.3c7.47-8.72,20.59-9.74,29.31-2.26
			c8.71,7.47,9.73,20.58,2.26,29.3C151.88,408.69,138.76,409.7,130.05,402.24"/>
	</g>
	<g>
		<defs>
			<rect id="SVGID_43_" width="1920" height="1080"/>
		</defs>
		<clipPath id="SVGID_44_">
			<use xlink:href="#SVGID_43_"  style="overflow:visible;"/>
		</clipPath>
		<path class="st22" d="M130.05,402.24c-8.72-7.47-9.74-20.59-2.27-29.3c7.47-8.72,20.59-9.74,29.31-2.26
			c8.71,7.47,9.73,20.58,2.26,29.3C151.88,408.69,138.76,409.7,130.05,402.24z"/>
	</g>
	<g>
		<defs>
			<rect id="SVGID_45_" width="1920" height="1080"/>
		</defs>
		<clipPath id="SVGID_46_">
			<use xlink:href="#SVGID_45_"  style="overflow:visible;"/>
		</clipPath>
		<path class="st23" d="M127.16,676.09c-8.72-7.47-9.74-20.59-2.27-29.3c7.47-8.72,20.59-9.73,29.31-2.26
			c8.71,7.47,9.73,20.58,2.26,29.31C148.99,682.54,135.87,683.55,127.16,676.09"/>
	</g>
	<g>
		<defs>
			<rect id="SVGID_47_" width="1920" height="1080"/>
		</defs>
		<clipPath id="SVGID_48_">
			<use xlink:href="#SVGID_47_"  style="overflow:visible;"/>
		</clipPath>
		<path class="st24" d="M127.16,676.09c-8.72-7.47-9.74-20.59-2.27-29.3c7.47-8.72,20.59-9.73,29.31-2.26
			c8.71,7.47,9.73,20.58,2.26,29.31C148.99,682.54,135.87,683.55,127.16,676.09z"/>
	</g>
	<g>
		<defs>
			<rect id="SVGID_49_" width="1920" height="1080"/>
		</defs>
		<clipPath id="SVGID_50_">
			<use xlink:href="#SVGID_49_"  style="overflow:visible;"/>
		</clipPath>
		<path class="st25" d="M389.61,938.74c-8.72-7.47-9.73-20.59-2.27-29.3c7.47-8.72,20.59-9.74,29.31-2.26
			c8.71,7.47,9.73,20.58,2.26,29.3C411.44,945.19,398.32,946.2,389.61,938.74"/>
	</g>
	<g>
		<defs>
			<rect id="SVGID_51_" width="1920" height="1080"/>
		</defs>
		<clipPath id="SVGID_52_">
			<use xlink:href="#SVGID_51_"  style="overflow:visible;"/>
		</clipPath>
		<path class="st26" d="M389.61,938.74c-8.72-7.47-9.73-20.59-2.27-29.3c7.47-8.72,20.59-9.74,29.31-2.26
			c8.71,7.47,9.73,20.58,2.26,29.3C411.44,945.19,398.32,946.2,389.61,938.74z"/>
	</g>
	<g>
		<defs>
			<rect id="SVGID_53_" width="1920" height="1080"/>
		</defs>
		<clipPath id="SVGID_54_">
			<use xlink:href="#SVGID_53_"  style="overflow:visible;"/>
		</clipPath>
		<path class="st27" d="M743.23,245.47c-8.72-7.47-9.74-20.59-2.28-29.3c7.47-8.72,20.59-9.74,29.31-2.26
			c8.71,7.46,9.72,20.58,2.26,29.3C765.06,251.92,751.94,252.93,743.23,245.47"/>
	</g>
	<g>
		<defs>
			<rect id="SVGID_55_" width="1920" height="1080"/>
		</defs>
		<clipPath id="SVGID_56_">
			<use xlink:href="#SVGID_55_"  style="overflow:visible;"/>
		</clipPath>
		<path class="st28" d="M743.23,245.47c-8.72-7.47-9.74-20.59-2.28-29.3c7.47-8.72,20.59-9.74,29.31-2.26
			c8.71,7.46,9.72,20.58,2.26,29.3C765.06,251.92,751.94,252.93,743.23,245.47z"/>
	</g>
	<g>
		<defs>
			<rect id="SVGID_57_" width="1920" height="1080"/>
		</defs>
		<clipPath id="SVGID_58_">
			<use xlink:href="#SVGID_57_"  style="overflow:visible;"/>
		</clipPath>
		<path class="st29" d="M950.24,547.76c-8.72-7.47-9.74-20.59-2.27-29.3c7.47-8.72,20.59-9.73,29.31-2.26
			c8.71,7.47,9.72,20.58,2.26,29.31C972.07,554.21,958.95,555.22,950.24,547.76"/>
	</g>
	<g>
		<defs>
			<rect id="SVGID_59_" width="1920" height="1080"/>
		</defs>
		<clipPath id="SVGID_60_">
			<use xlink:href="#SVGID_59_"  style="overflow:visible;"/>
		</clipPath>
		<path class="st30" d="M950.24,547.76c-8.72-7.47-9.74-20.59-2.27-29.3c7.47-8.72,20.59-9.73,29.31-2.26
			c8.71,7.47,9.72,20.58,2.26,29.31C972.07,554.21,958.95,555.22,950.24,547.76z"/>
	</g>
	<g>
		<defs>
			<rect id="SVGID_61_" width="1920" height="1080"/>
		</defs>
		<clipPath id="SVGID_62_">
			<use xlink:href="#SVGID_61_"  style="overflow:visible;"/>
		</clipPath>
		<path class="st31" d="M956.95,864.11c-8.72-7.47-9.74-20.59-2.27-29.3c7.47-8.72,20.59-9.73,29.31-2.26
			c8.71,7.47,9.72,20.58,2.26,29.31C978.78,870.56,965.66,871.57,956.95,864.11"/>
	</g>
	<g>
		<defs>
			<rect id="SVGID_63_" width="1920" height="1080"/>
		</defs>
		<clipPath id="SVGID_64_">
			<use xlink:href="#SVGID_63_"  style="overflow:visible;"/>
		</clipPath>
		<path class="st32" d="M956.95,864.11c-8.72-7.47-9.74-20.59-2.27-29.3c7.47-8.72,20.59-9.73,29.31-2.26
			c8.71,7.47,9.72,20.58,2.26,29.31C978.78,870.56,965.66,871.57,956.95,864.11z"/>
	</g>
	<g>
		<defs>
			<rect id="SVGID_65_" width="1920" height="1080"/>
		</defs>
		<clipPath id="SVGID_66_">
			<use xlink:href="#SVGID_65_"  style="overflow:visible;"/>
		</clipPath>
		<path class="st33" d="M844.2,910.65c-8.72-7.47-9.74-20.59-2.27-29.3c5.92-6.9,22.15-8.4,29.31-2.26
			c8.71,7.47,9.73,20.58,2.26,29.31C866.03,917.1,852.91,918.12,844.2,910.65"/>
	</g>
	<g>
		<defs>
			<rect id="SVGID_67_" width="1920" height="1080"/>
		</defs>
		<clipPath id="SVGID_68_">
			<use xlink:href="#SVGID_67_"  style="overflow:visible;"/>
		</clipPath>
		<path class="st34" d="M844.2,910.65c-8.72-7.47-9.74-20.59-2.27-29.3c5.92-6.9,22.15-8.4,29.31-2.26
			c8.71,7.47,9.73,20.58,2.26,29.31C866.03,917.1,852.91,918.12,844.2,910.65z"/>
	</g>
	<g>
		<defs>
			<rect id="SVGID_69_" width="1920" height="1080"/>
		</defs>
		<clipPath id="SVGID_70_">
			<use xlink:href="#SVGID_69_"  style="overflow:visible;"/>
		</clipPath>
		<path class="st35" d="M1008.22,464.61c-8.72-7.47-9.74-20.59-2.27-29.3c5.92-6.9,22.15-8.4,29.31-2.26
			c8.71,7.47,9.73,20.58,2.26,29.31C1030.05,471.06,1016.93,472.08,1008.22,464.61"/>
	</g>
	<g>
		<defs>
			<rect id="SVGID_71_" width="1920" height="1080"/>
		</defs>
		<clipPath id="SVGID_72_">
			<use xlink:href="#SVGID_71_"  style="overflow:visible;"/>
		</clipPath>
		<path class="st36" d="M1008.22,464.61c-8.72-7.47-9.74-20.59-2.27-29.3c5.92-6.9,22.15-8.4,29.31-2.26
			c8.71,7.47,9.73,20.58,2.26,29.31C1030.05,471.06,1016.93,472.08,1008.22,464.61z"/>
	</g>
	<g>
		<defs>
			<rect id="SVGID_73_" width="1920" height="1080"/>
		</defs>
		<clipPath id="SVGID_74_">
			<use xlink:href="#SVGID_73_"  style="overflow:visible;"/>
		</clipPath>
		<path class="st37" d="M706.12,788.16c-8.72-7.47-9.74-20.59-2.27-29.3c5.92-6.9,22.15-8.4,29.31-2.26
			c8.71,7.47,9.73,20.58,2.26,29.31C727.95,794.61,714.83,795.62,706.12,788.16"/>
	</g>
	<g>
		<defs>
			<rect id="SVGID_75_" width="1920" height="1080"/>
		</defs>
		<clipPath id="SVGID_76_">
			<use xlink:href="#SVGID_75_"  style="overflow:visible;"/>
		</clipPath>
		<path class="st38" d="M706.12,788.16c-8.72-7.47-9.74-20.59-2.27-29.3c5.92-6.9,22.15-8.4,29.31-2.26
			c8.71,7.47,9.73,20.58,2.26,29.31C727.95,794.61,714.83,795.62,706.12,788.16z"/>
	</g>
	<g>
		<defs>
			<rect id="SVGID_77_" width="1920" height="1080"/>
		</defs>
		<clipPath id="SVGID_78_">
			<use xlink:href="#SVGID_77_"  style="overflow:visible;"/>
		</clipPath>
		<path class="st39" d="M864.98,349.83c-8.72-7.47-9.74-20.59-2.27-29.3s20.59-9.73,29.31-2.26c8.71,7.47,9.73,20.58,2.26,29.31
			C886.81,356.28,873.69,357.29,864.98,349.83"/>
	</g>
	<g>
		<defs>
			<rect id="SVGID_79_" width="1920" height="1080"/>
		</defs>
		<clipPath id="SVGID_80_">
			<use xlink:href="#SVGID_79_"  style="overflow:visible;"/>
		</clipPath>
		<path class="st40" d="M864.98,349.83c-8.72-7.47-9.74-20.59-2.27-29.3s20.59-9.73,29.31-2.26c8.71,7.47,9.73,20.58,2.26,29.31
			C886.81,356.28,873.69,357.29,864.98,349.83z"/>
	</g>
	<g>
		<defs>
			<rect id="SVGID_81_" width="1920" height="1080"/>
		</defs>
		<clipPath id="SVGID_82_">
			<use xlink:href="#SVGID_81_"  style="overflow:visible;"/>
		</clipPath>
		<path class="st41" d="M1211.78,201.01c-8.72-7.47-9.74-20.59-2.27-29.3s20.59-9.73,29.31-2.26c8.71,7.46,9.73,20.58,2.26,29.3
			C1233.61,207.47,1220.5,208.48,1211.78,201.01"/>
	</g>
	<g>
		<defs>
			<rect id="SVGID_83_" width="1920" height="1080"/>
		</defs>
		<clipPath id="SVGID_84_">
			<use xlink:href="#SVGID_83_"  style="overflow:visible;"/>
		</clipPath>
		<path class="st42" d="M1211.78,201.01c-8.72-7.47-9.74-20.59-2.27-29.3s20.59-9.73,29.31-2.26c8.71,7.46,9.73,20.58,2.26,29.3
			C1233.61,207.47,1220.5,208.48,1211.78,201.01z"/>
	</g>
	<g>
		<defs>
			<rect id="SVGID_85_" width="1920" height="1080"/>
		</defs>
		<clipPath id="SVGID_86_">
			<use xlink:href="#SVGID_85_"  style="overflow:visible;"/>
		</clipPath>
		<path class="st43" d="M1174.94,599.68c-8.72-7.47-9.73-20.59-2.27-29.3c7.47-8.72,20.59-9.73,29.31-2.26
			c8.71,7.47,9.73,20.58,2.26,29.3C1196.77,606.13,1183.65,607.14,1174.94,599.68"/>
	</g>
	<g>
		<defs>
			<rect id="SVGID_87_" width="1920" height="1080"/>
		</defs>
		<clipPath id="SVGID_88_">
			<use xlink:href="#SVGID_87_"  style="overflow:visible;"/>
		</clipPath>
		<path class="st44" d="M1174.94,599.68c-8.72-7.47-9.73-20.59-2.27-29.3c7.47-8.72,20.59-9.73,29.31-2.26
			c8.71,7.47,9.73,20.58,2.26,29.3C1196.77,606.13,1183.65,607.14,1174.94,599.68z"/>
	</g>
	<g>
		<defs>
			<rect id="SVGID_89_" width="1920" height="1080"/>
		</defs>
		<clipPath id="SVGID_90_">
			<use xlink:href="#SVGID_89_"  style="overflow:visible;"/>
		</clipPath>
		<path class="st45" d="M1067.24,822.54c-8.72-7.47-9.74-20.59-2.27-29.3c7.47-8.72,20.59-9.73,29.31-2.26
			c8.71,7.47,9.73,20.58,2.26,29.3C1089.07,828.99,1075.95,830,1067.24,822.54"/>
	</g>
	<g>
		<defs>
			<rect id="SVGID_91_" width="1920" height="1080"/>
		</defs>
		<clipPath id="SVGID_92_">
			<use xlink:href="#SVGID_91_"  style="overflow:visible;"/>
		</clipPath>
		<path class="st46" d="M1067.24,822.54c-8.72-7.47-9.74-20.59-2.27-29.3c7.47-8.72,20.59-9.73,29.31-2.26
			c8.71,7.47,9.73,20.58,2.26,29.3C1089.07,828.99,1075.95,830,1067.24,822.54z"/>
	</g>
	<g>
		<defs>
			<rect id="SVGID_93_" width="1920" height="1080"/>
		</defs>
		<clipPath id="SVGID_94_">
			<use xlink:href="#SVGID_93_"  style="overflow:visible;"/>
		</clipPath>
		<path class="st47" d="M965.75,1022.26c-8.48-7.26-9.46-20.01-2.21-28.49c5.75-6.71,21.53-8.17,28.49-2.2
			c8.47,7.26,9.45,20.01,2.2,28.49C986.97,1028.53,974.22,1029.51,965.75,1022.26"/>
	</g>
	<g>
		<defs>
			<rect id="SVGID_95_" width="1920" height="1080"/>
		</defs>
		<clipPath id="SVGID_96_">
			<use xlink:href="#SVGID_95_"  style="overflow:visible;"/>
		</clipPath>
		<path class="st48" d="M965.75,1022.26c-8.48-7.26-9.46-20.01-2.21-28.49c5.75-6.71,21.53-8.17,28.49-2.2
			c8.47,7.26,9.45,20.01,2.2,28.49C986.97,1028.53,974.22,1029.51,965.75,1022.26z"/>
	</g>
	<g>
		<defs>
			<rect id="SVGID_97_" width="1920" height="1080"/>
		</defs>
		<clipPath id="SVGID_98_">
			<use xlink:href="#SVGID_97_"  style="overflow:visible;"/>
		</clipPath>
		<path class="st49" d="M624.47,1002.11c-8.48-7.26-9.46-20.01-2.21-28.49c5.75-6.71,21.53-8.17,28.49-2.2
			c8.47,7.26,9.45,20.01,2.2,28.49C645.69,1008.38,632.94,1009.37,624.47,1002.11"/>
	</g>
	<g>
		<defs>
			<rect id="SVGID_99_" width="1920" height="1080"/>
		</defs>
		<clipPath id="SVGID_100_">
			<use xlink:href="#SVGID_99_"  style="overflow:visible;"/>
		</clipPath>
		<path class="st50" d="M624.47,1002.11c-8.48-7.26-9.46-20.01-2.21-28.49c5.75-6.71,21.53-8.17,28.49-2.2
			c8.47,7.26,9.45,20.01,2.2,28.49C645.69,1008.38,632.94,1009.37,624.47,1002.11z"/>
	</g>
	<g>
		<defs>
			<rect id="SVGID_101_" width="1920" height="1080"/>
		</defs>
		<clipPath id="SVGID_102_">
			<use xlink:href="#SVGID_101_"  style="overflow:visible;"/>
		</clipPath>
		<path class="st51" d="M1317.07,711.39c-8.48-7.26-9.46-20.01-2.21-28.49c5.75-6.71,21.53-8.17,28.49-2.2
			c8.47,7.26,9.45,20.01,2.2,28.49C1338.29,717.66,1325.54,718.65,1317.07,711.39"/>
	</g>
	<g>
		<defs>
			<rect id="SVGID_103_" width="1920" height="1080"/>
		</defs>
		<clipPath id="SVGID_104_">
			<use xlink:href="#SVGID_103_"  style="overflow:visible;"/>
		</clipPath>
		<path class="st52" d="M1317.07,711.39c-8.48-7.26-9.46-20.01-2.21-28.49c5.75-6.71,21.53-8.17,28.49-2.2
			c8.47,7.26,9.45,20.01,2.2,28.49C1338.29,717.66,1325.54,718.65,1317.07,711.39z"/>
	</g>
</g>
</svg>
