<?xml version="1.0" encoding="utf-8"?>
<!-- Svg Vector Icons : http://www.onlinewebfonts.com/icon -->
<!DOCTYPE svg PUBLIC "-//W3C//DTD SVG 1.1//EN" "http://www.w3.org/Graphics/SVG/1.1/DTD/svg11.dtd">
<svg version="1.1" xmlns="http://www.w3.org/2000/svg" xmlns:xlink="http://www.w3.org/1999/xlink" fill="#ffffff" x="0px" y="0px" viewBox="0 0 1000 1000" enable-background="new 0 0 1000 1000" xml:space="preserve">
<metadata> Svg Vector Icons : http://www.onlinewebfonts.com/icon </metadata>
<g><path d="M589.7,289.5c-28.3-34.1-56.4-62.5-83.9-85.1c-3.4-2.9-8.2-2.8-11.6,0c-27.4,22.7-55.6,51-83.7,85.1c-5.1,6.1-0.4,15.5,7.6,14.9c54.3-3.6,109.7-3.5,163.9,0.1C589.9,304.9,594.7,295.7,589.7,289.5L589.7,289.5z M497.5,354.8c76.4,0,138.2,61.9,138.2,138.3c0,76.4-61.8,138.3-138.2,138.3c-76.4,0-138.2-61.9-138.2-138.3C359.3,416.7,421.2,354.8,497.5,354.8L497.5,354.8z M792.4,745.5c-0.1-3.9-0.4-7.7-0.6-11.7c-0.4-5.9-6.2-9.9-11.8-8.2c-39.1,12-83.5,21.6-133.4,27.9c-11.6,1.4-21.1,6.9-28.2,16.2c-30.4,40-60.8,73.8-90.6,101.6c-4.4,4-3.8,11,1.1,14.2c75.1,50.5,143.2,58.8,191.4,32.1c6.1-3.4,7.5-11.5,3.1-16.8c-45.9-53.5-12-140.5,60.6-145.8C788.8,754.6,792.6,750.4,792.4,745.5L792.4,745.5z M825.4,761.5c32.1,13.4,54.7,45.1,54.7,82.1c0,53.6-46.7,94.2-98.8,88.3c-3.5-0.5-6.7,0.8-9.1,3.3c-56.5,58.2-156,52.7-266.3-35.1c-3.4-2.7-8-2.7-11.4,0c-167.6,133.2-310,77.1-315.3-103.8c-0.1-4-2.6-7.3-6.4-8.5c-43.7-13.4-69.9-58.1-60.9-102.5c0.8-3.8-0.8-7.5-4.1-9.6c-150.6-95.1-127.1-244.9,70.6-322.9c4-1.5,6.4-5.6,5.7-9.8C148.4,104.3,305.3,13.8,494.2,163.9c3.3,2.7,8,2.7,11.3,0c36.3-28.9,71.4-48.7,104.2-60.6c3-1,5.1-3.4,5.8-6.7c8.6-39.9,44.2-70,86.9-70c60.5,0,102.2,58.9,84.9,114.9c-0.9,2.7-0.5,5.4,1.1,7.7c28.4,43,40,108.5,27.7,192.4c-0.7,5.2,2.1,9.9,6.8,11.9c223.2,88.7,222.8,269.3-1.3,357.6c-4,1.6-6.3,5.6-5.7,9.9c1.7,11.3,2.9,22.2,3.8,32.8C820,757.3,822,760.1,825.4,761.5L825.4,761.5z M212.7,606.7c6.4-18.9,13.8-38.3,22.3-58.4c4.5-10.8,4.5-21.7,0-32.6c-19.5-46.4-33.5-89.6-42.7-129.4c-1.3-5.8-7.6-8.8-12.9-6.2C38.2,449.2,18.1,563.8,119,645.9c3.8,3.2,9.4,2.6,12.7-1.1c17.6-20.3,43.4-31.5,70.2-30.7C206.8,614.2,211.1,611.3,212.7,606.7L212.7,606.7z M238.7,623.4c33.3,16.7,52.7,52.6,48.4,89.5c-0.5,4.6,2.5,8.9,7.1,9.9c13,2.9,26.6,5.5,40.6,7.9c7.9,1.3,13.6-7.5,9.1-14c-30.2-45.3-58-93.2-82-142c-3.5-7.2-14-6.7-16.7,0.9c-4.4,11.7-8.4,23.3-12,34.7C231.5,615.5,233.8,620.9,238.7,623.4L238.7,623.4z M276.1,746.8c-12.4,21.7-33.7,37.7-58.9,43c-4.7,1.1-7.8,5.6-7.2,10.2c18.6,132.3,129.1,174.4,261.2,85.5c4.9-3.3,5.4-10.2,1.1-14.2c-29.9-27.8-60.4-61.6-90.8-101.7c-7.1-9.3-16.5-14.8-28.2-16.2c-23.7-3-46.2-6.7-67.4-11.1C282,741.4,278.1,743.2,276.1,746.8L276.1,746.8z M752.8,188.6c-47.2,32.8-114.7,12-134.2-43.3c-1.6-4.6-6.6-7.1-11.2-5.6c-24.9,7.5-51.3,20.3-78.6,38.7c-5,3.2-5.5,10.2-1.1,14.2c29.9,27.8,60.4,61.5,90.8,101.7c7.1,9.3,16.5,14.8,28.2,16.2c49,6.2,92.7,15.4,131.2,27.1c6.8,2,13.7-2.7,14.1-9.8c3.6-57.1-6.2-103.3-26.1-136.5C763.1,186.8,757.2,185.6,752.8,188.6L752.8,188.6z M471.2,178.4C319,76.1,195.6,147.4,208.2,330.2c0.4,5.9,6.1,9.9,11.7,8.1c39.1-12,83.5-21.5,133.5-27.8c11.6-1.4,21.1-6.9,28.2-16.2c30.3-40,60.8-73.8,90.6-101.6C476.6,188.6,476,181.7,471.2,178.4L471.2,178.4z M665.1,730.9c43.7-7.4,82.3-17.6,115.8-30c4.1-1.6,6.5-5.7,5.8-10.1c-5.9-35.2-16.3-73.8-31.8-115.2c-2.9-7.6-13.3-8-16.8-1c-24,48.9-51.7,96.9-82.1,142.2C651.5,723.4,657.2,732.2,665.1,730.9L665.1,730.9z M261.9,489.2c24.1-48.8,51.7-96.8,82.1-142.1c4.4-6.7-1.2-15.5-9.1-14.1c-43.7,7.3-82.3,17.6-115.8,30c-4.2,1.5-6.6,5.7-5.8,10.1c5.9,35.2,16.3,73.8,31.9,115.2C248,495.9,258.4,496.4,261.9,489.2L261.9,489.2z M807.1,388.5c-9.1,39.2-22.9,81.6-42,127.1c-4.6,10.8-4.6,21.7,0,32.5c19.5,46.4,33.4,89.7,42.6,129.5c1.3,5.7,7.6,8.8,12.9,6.2c164-80.3,164.6-221.9,2.1-302.6C816.4,378,808.8,381.6,807.1,388.5L807.1,388.5z M599.3,739.3c-65.2,5.9-133.5,5.9-198.7-0.1c-12.6-1.1-23-7.2-30.4-17.6c-37.8-53.4-72-112.6-99.4-172.1c-5.3-11.5-5.3-23.5,0-35.1c27.4-59.6,61.5-118.8,99.5-172.3c7.4-10.4,17.7-16.4,30.4-17.6c65.2-6,133.5-5.9,198.7,0.1c12.7,1.1,23,7.2,30.4,17.5c37.8,53.5,72,112.7,99.4,172.1c5.4,11.6,5.3,23.6,0,35.2c-27.4,59.5-61.6,118.8-99.5,172.3C622.4,732.1,612,738.2,599.3,739.3L599.3,739.3z M589.6,774.5c-28.1,34.1-56.2,62.4-83.7,85.1c-3.3,2.8-8.2,2.8-11.6,0c-27.5-22.7-55.7-51-83.8-85.2c-5.2-6.2-0.4-15.4,7.6-14.9c54.3,3.6,109.7,3.6,163.9,0.1C589.9,759,594.7,768.3,589.6,774.5L589.6,774.5z M786.4,374.8c-5.9,34.7-16.3,72.7-31.6,113.5c-2.8,7.5-13.2,8-16.8,0.9c-24-48.8-51.7-96.7-82-142c-4.5-6.6,1.1-15.4,9.1-14c43.1,7.2,81.2,17.3,114.3,29.5C784.5,364.5,787.3,369.5,786.4,374.8L786.4,374.8z"/></g>
</svg>