<?xml version="1.0" encoding="utf-8"?>
<!-- Svg Vector Icons : http://www.onlinewebfonts.com/icon -->
<!DOCTYPE svg PUBLIC "-//W3C//DTD SVG 1.1//EN" "http://www.w3.org/Graphics/SVG/1.1/DTD/svg11.dtd">
<svg version="1.1" xmlns="http://www.w3.org/2000/svg" xmlns:xlink="http://www.w3.org/1999/xlink"  fill='#F9BB32' width="113.93px" height="114px" viewBox="0 0 1000 1000" enable-background="new 0 0 1000 1000" xml:space="preserve">
<metadata> Svg Vector Icons : http://www.onlinewebfonts.com/icon </metadata>
<g><g transform="translate(0.000000,512.000000) scale(0.100000,-0.100000)"><path d="M4644.8,5017.3c-688.6-71-1221.9-216.8-1764.8-485.3c-610-303.1-1049.3-631.1-1509.7-1133.7C695.2,2663.6,271.2,1746.7,123.5,703.2c-32.6-226.3-30.7-945.7,1.9-1179.7c124.7-901.6,491.1-1768.6,1041.6-2451.5c178.4-224.4,594.7-648.4,775-794.2c575.5-462.3,1365.8-832.5,2079.4-970.6c406.7-80.6,504.5-90.2,978.3-90.2c473.8,0,571.6,9.6,978.3,90.2c713.6,138.1,1488.6,500.6,2073.6,966.8c222.5,178.4,667.6,646.5,874.7,922.7c510.2,679.1,822.9,1448.3,949.5,2336.4c36.4,259,30.7,964.9-11.5,1237.3C9697.5,1863.7,9241,2784.5,8485.2,3549.9c-771.1,780.7-1716.8,1262.2-2814.1,1431C5477.4,5009.7,4807.9,5034.6,4644.8,5017.3z M5556,4637.5c1053.1-132.4,2012.2-606.2,2723.9-1346.6c692.5-721.3,1112.6-1607.5,1239.2-2616.5c34.6-282,34.6-830.6,0-1112.6c-130.4-1049.3-587-1977.7-1333.2-2712.4c-138.1-136.2-157.3-149.6-186.1-124.7c-17.3,15.4-416.3,220.6-886.2,458.5c-730.9,368.3-865.1,443.1-915,504.5l-57.5,74.8l-5.8,339.5l-5.8,341.4l143.9,212.9c157.3,232.1,276.2,456.6,376,709.7c34.5,86.3,69.1,157.3,76.7,157.3c42.2,0,228.3,201.4,278.2,301.2l57.5,111.3l5.7,441.2c5.8,479.6-1.9,546.7-94,688.7l-53.7,84.4l-5.8,621.5c-7.7,692.5-17.3,744.3-163,1010.9c-232.1,429.7-686.7,698.2-1325.5,790.3c-216.8,30.7-847.9,11.5-1039.7-30.7c-661.8-145.8-1072.3-479.6-1248.8-1016.7c-42.2-126.6-44.1-170.7-51.8-753.9c-5.8-613.8-7.7-621.5-51.8-686.7c-97.8-143.9-107.4-216.8-101.7-702.1c5.7-441.2,5.7-448.9,57.5-552.5c28.8-59.5,80.6-140,115.1-182.2c42.2-49.9,82.5-138.1,118.9-249.4c71-226.3,228.3-550.5,374.1-773l117-178.4v-301.2c0-326.1-21.1-408.6-117-494.9c-24.9-23-381.7-224.4-794.2-448.9c-410.5-224.4-773.1-425.9-801.8-447l-55.6-38.4L1802-3141C1073-2421.6,610.8-1475.9,480.3-438.2c-34.5,287.7-34.5,832.5,1.9,1131.8C737.4,2755.7,2344.9,4369,4407,4633.7C4679.4,4670.1,5285.5,4670.1,5556,4637.5z M5373.8,3223.8c243.6-30.7,437.4-82.5,604.2-165c188-92.1,387.5-287.7,475.7-470c101.7-207.2,115.1-333.8,113.2-997.5l-1.9-588.9l59.5-63.3c34.5-34.5,71-88.2,80.6-117c26.8-69.1,26.8-728.9,1.9-817.2c-24.9-92.1-86.3-149.6-191.8-184.2l-92.1-30.7l-61.4-176.5c-115.1-331.9-337.6-736.6-529.4-961l-65.2-76.7V-1779c1.9-387.5,13.4-470,92.1-631.1c107.4-222.5,165-260.9,1055-704c445-220.6,809.5-406.7,809.5-414.3c0-28.8-479.6-322.3-719.3-439.3C6400-4265.1,5832.2-4401.3,5134-4422.4c-775-21.1-1479,126.6-2138.9,452.7c-251.3,124.7-738.5,427.8-738.5,458.5c0,7.7,333.8,193.8,742.4,416.3c824.8,448.9,884.3,491.1,989.8,713.6l61.4,130.4l5.8,416.3l5.8,414.3l-86.3,118.9c-189.9,259-377.9,646.5-458.5,947.6c-38.4,143.9-51.8,172.6-103.6,205.3C3290.6-71.8,3282.9-43,3277.1,356c-3.8,199.5-1.9,393.2,5.8,427.8c5.8,36.4,40.3,97.8,76.7,136.2l63.3,72.9l7.7,659.9c7.7,633,9.6,667.5,51.8,786.5c161.1,456.5,537.1,715.5,1133.7,784.6C4827.1,3246.8,5176.2,3248.7,5373.8,3223.8z"/></g></g>
</svg>

