<?xml version="1.0" encoding="utf-8"?>
<!-- Svg Vector Icons : http://www.onlinewebfonts.com/icon -->
<!DOCTYPE svg PUBLIC "-//W3C//DTD SVG 1.1//EN" "http://www.w3.org/Graphics/SVG/1.1/DTD/svg11.dtd">
<svg version="1.1" xmlns="http://www.w3.org/2000/svg" xmlns:xlink="http://www.w3.org/1999/xlink" fill='#F9BB32' width="113.93px" height="114px" x="0px" y="0px" viewBox="0 0 1000 1000" enable-background="new 0 0 1000 1000" xml:space="preserve">
<metadata> Svg Vector Icons : http://www.onlinewebfonts.com/icon </metadata>
<g><g transform="translate(0.000000,512.000000) scale(0.100000,-0.100000)"><path d="M4622.6,5016.9c-693.8-70.9-1213.2-214.7-1782.4-494.5c-500.2-245.3-856.7-498.3-1263-891.2c-417.8-408.2-722.6-828-981.3-1353.1c-241.5-494.5-389.1-979.4-471.5-1552.4c-32.6-226.2-32.6-981.3,0-1207.5c136.1-950.6,504.1-1803.5,1082.9-2506.9c1353.1-1642.5,3595.5-2229,5571.5-1458.5C8043.7-3952.7,9071-2923.5,9569.3-1650.9C9772.5-1127.7,9876-625.6,9897-41c46,1326.3-446.6,2604.6-1374.2,3562.9c-421.7,435.1-833.7,736-1370.4,998.5c-483,237.7-927.6,377.6-1466.2,460C5492.8,5009.2,4789.4,5034.1,4622.6,5016.9z M3206.3,4240.6c-400.6-425.5-624.8-950.6-655.5-1540.9C2522.1,2174.6,2660.1,1567,2938,986.3C3225.5,384.5,3616.4-62.1,4024.7-257.6l149.5-70.9l-5.8-95.8l-5.7-95.8L3511-531.6c-716.8-11.5-799.2-21.1-1136.5-141.8c-594.1-212.7-1105.9-718.7-1316.7-1303.3c-19.2-51.7-42.2-103.5-49.8-113.1c-19.2-23-218.5,389.1-314.3,647.8C507.7-939.9,427.3-462.7,427.3,121.9c0,749.4,136.1,1347.3,458.1,2002.8c477.2,975.5,1257.3,1730.7,2246.2,2177.2c115,49.8,210.8,92,214.7,93.9C3348.1,4395.9,3286.8,4326.9,3206.3,4240.6z M7018.3,4223.4c910.4-444.6,1634.8-1172.9,2089.1-2098.6c216.6-444.6,346.9-864.4,425.5-1370.4c46-310.5,46-960.2-1.9-1274.5c-44.1-289.4-141.8-676.6-231.9-921.9c-99.7-264.5-295.2-670.8-314.3-647.8c-7.7,9.6-30.7,61.3-49.8,113.1C8718.4-1374.9,8181.7-857.5,7555-648.6c-281.7,93.9-389.1,107.3-1073.3,116.9l-651.6,11.5v95.8v93.9l161,82.4c534.7,272.2,981.3,852.9,1245.8,1619.5c391,1142.3,233.8,2144.6-456.2,2876.8C6629.3,4409.3,6638.9,4409.3,7018.3,4223.4z M6142.5,3454.8c272.2-124.6,529-308.6,766.6-544.3l214.7-214.7v-113.1c-1.9-559.6-212.7-1284.1-517.5-1780.5c-241.5-394.8-494.5-634.4-849-803c-115-55.6-159.1-88.2-201.2-149.5c-47.9-72.8-51.7-93.9-51.7-276c0-189.7,1.9-197.4,59.4-270.2c30.7-40.2,93.9-90.1,138-111.2c44.1-21.1,74.8-47.9,70.9-61.3c-19.2-57.5-440.8-540.5-446.6-513.6c-9.6,44.1-649.7,44.1-659.3,0c-5.7-28.8-425.5,454.2-448.5,515.6c-5.7,15.3,7.7,30.7,38.3,38.3c69,17.2,161,101.6,205.1,189.7c32.6,63.3,38.3,103.5,32.6,243.4c-7.7,233.8-51.7,297.1-285.6,410.2c-95.8,47.9-220.4,122.7-279.8,166.8C3532.1,488,3145,1156.9,2974.4,1827.7c-57.5,224.2-105.4,546.2-105.4,713v109.2l149.5,151.4c166.7,172.5,314.3,254.9,521.3,291.3c180.2,32.6,335.4,9.6,630.6-92c256.8-88.2,264.5-88.2,500.2-88.2c205.1,1.9,260.7,9.6,392.9,51.7c285.6,93.9,532.8,279.8,688.1,515.6l72.8,109.2l80.5-30.7C5947,3541.1,6054.3,3495.1,6142.5,3454.8z M4061.1-1200.5c264.5-314.3,281.7-341.1,283.6-415.9v-82.4l-287.5-191.7l-289.4-193.6l-24.9,63.2c-15.3,34.5-126.5,312.4-247.2,615.2l-220.4,552l251.1-5.8l253-5.8L4061.1-1200.5z M6497-1405.6c-120.7-304.7-231.9-580.7-247.2-615.2l-24.9-63.2l-289.4,193.6L5648-1698.8v78.6c0,72.8,17.3,99.6,185.9,302.8c101.6,122.7,231.9,276,289.4,343.1l103.5,118.8h245.3h245.3L6497-1405.6z M3269.5-1721.8c184-461.9,343.1-839.5,350.7-839.5c9.6,0,249.2,155.3,532.8,345l517.5,345v-143.7v-143.7h67.1c40.3,0,67.1-9.6,67.1-23c0-61.3-272.2-2194.5-283.6-2221.3c-11.5-26.8-32.6-26.8-205.1-1.9c-437,61.3-916.1,214.7-1341.6,425.5L2725.2-3855l-5.7,513.6l-3.8,511.7h-172.5h-172.5v-392.9c0-216.6-5.7-392.9-11.5-392.9s-86.2,57.5-178.2,128.4c-339.2,262.6-921.9,895-921.9,1002.4c0,86.3,82.4,360.3,153.3,511.7c99.7,214.7,195.5,352.7,362.2,529c272.2,285.6,609.5,463.8,1046.4,557.7C2930.3-863.2,2916.9-840.2,3269.5-1721.8z M7344.2-926.5c530.9-141.8,973.6-509.8,1217-1012c86.3-176.3,172.5-448.5,172.5-544.3c0-107.3-582.6-741.7-921.9-1004.3c-92-70.9-172.5-128.4-178.3-128.4c-5.8,0-11.5,176.3-11.5,392.9v392.9h-172.5h-172.5l-3.8-511.7l-5.8-513.6l-249.2-124.6c-314.3-155.2-578.8-253-910.4-337.3c-218.5-53.7-611.4-124.6-628.6-113.1c-5.8,3.8-291.3,2202.1-291.3,2242.4c0,19.2,21.1,28.8,67.1,28.8h67.1v143.7v143.7l517.5-345c283.6-189.7,523.2-345,532.8-345c7.7,0,153.3,343.1,320.1,762.8c166.7,417.8,320.1,799.2,339.2,843.3l34.5,84.3l82.4-13.4C7192.8-892,7280.9-911.1,7344.2-926.5z"/></g></g>
</svg>