<?xml version="1.0" encoding="utf-8"?>
<!-- Svg Vector Icons : http://www.onlinewebfonts.com/icon -->
<!DOCTYPE svg PUBLIC "-//W3C//DTD SVG 1.1//EN" "http://www.w3.org/Graphics/SVG/1.1/DTD/svg11.dtd">
<svg version="1.1" xmlns="http://www.w3.org/2000/svg" fill=#F9BB32 xmlns:xlink="http://www.w3.org/1999/xlink" x="0px" y="0px" viewBox="0 0 1000 1000" enable-background="new 0 0 1000 1000" xml:space="preserve">
<metadata> Svg Vector Icons : http://www.onlinewebfonts.com/icon </metadata>
<g><path d="M99.2,964.9c24.3-90.7,49-180.3,114.2-254c109.1-123.4,291.3-165.6,446.8-100.1C806.5,672.4,913.5,837.9,899.6,990c-266.3,0-533.3,0-800.4,0C99.2,981.6,99.2,973.2,99.2,964.9z"/><path d="M533.5,10c17.8,5.8,35.6,11.7,53.4,17.3c123.7,39,198.3,163.6,174.3,291.4c-21.5,114.8-136.9,206.1-256.8,203.2c-127.2-3.1-238.4-103-250.4-224.8C241.6,168.9,321.7,55,446.6,23.6c16.3-4.1,32.4-9,48.6-13.6C508,10,520.8,10,533.5,10z"/></g>
</svg>